# xmcd
#
# Track frame offsets:
#	150
#	8900
#	18273
#	36715
#	48663
#	65459
#	75052
#	84839
#	95925
#	110560
#	122054
#
# Disc length: 1772 seconds
#
# Revision: 1
# Processed by: cddbd v1.5.2PL0 Copyright (c) Steve Scherf et al.
# Submitted via: audiograbber 1.83.01
#
DISCID=8706ea0b
DTITLE=Everett Brothers - Gospel Favorites
DYEAR=1900
DGENRE=Bluegrass Gospel
TTITLE0=Crying Holy Unto The Lord
TTITLE1=I"ve Never Been There
TTITLE2=I'm Ready To Go Home
TTITLE3=I Just Steal Away And Pray
TTITLE4=In The Great Beyond
TTITLE5=Rock Of Ages
TTITLE6=Camping In Canaan's Land
TTITLE7=Deliverance Will Come
TTITLE8=It's Me Again Lord
TTITLE9=Precious Memories
TTITLE10=He Will Set Your Fields On Fire
EXTD=
EXTT0=
EXTT1=
EXTT2=
EXTT3=
EXTT4=
EXTT5=
EXTT6=
EXTT7=
EXTT8=
EXTT9=
EXTT10=
PLAYORDER=
